<svg width="31" height="30" xmlns="http://www.w3.org/2000/svg" xmlns:xlink="http://www.w3.org/1999/xlink" overflow="hidden"><defs><clipPath id="clip0"><rect x="1065" y="544" width="31" height="30"/></clipPath><clipPath id="clip1"><rect x="1066" y="544" width="30" height="30"/></clipPath><clipPath id="clip2"><rect x="1066" y="544" width="30" height="30"/></clipPath><clipPath id="clip3"><rect x="1066" y="544" width="30" height="30"/></clipPath></defs><g clip-path="url(#clip0)" transform="translate(-1065 -544)"><g clip-path="url(#clip1)"><g clip-path="url(#clip2)"><g clip-path="url(#clip3)"><path d="M1091.62 564.625 1091.62 561.812 1082.56 555.406 1082.56 549.312C1082.56 548.094 1081.94 546.5 1081 546.5 1080.09 546.5 1079.44 548.094 1079.44 549.312L1079.44 555.406 1070.38 561.812 1070.38 564.625 1079.44 560.094 1079.44 566.906 1076.31 569.625 1076.31 571.5 1081 569.625 1085.69 571.5 1085.69 569.625 1082.56 566.906 1082.56 560.094 1091.62 564.625Z" fill="#000000" fill-rule="nonzero" fill-opacity="1"/></g></g></g></g></svg>