<svg width="32" height="30" xmlns="http://www.w3.org/2000/svg" xmlns:xlink="http://www.w3.org/1999/xlink" overflow="hidden"><defs><clipPath id="clip0"><rect x="896" y="108" width="32" height="30"/></clipPath><clipPath id="clip1"><rect x="897" y="108" width="30" height="30"/></clipPath><clipPath id="clip2"><rect x="897" y="108" width="30" height="30"/></clipPath><clipPath id="clip3"><rect x="897" y="108" width="30" height="30"/></clipPath></defs><g clip-path="url(#clip0)" transform="translate(-896 -108)"><g clip-path="url(#clip1)"><g clip-path="url(#clip2)"><g clip-path="url(#clip3)"><path d="M898.875 130.5 925.125 130.5 925.125 131.75 898.875 131.75Z" fill="#000000" fill-rule="nonzero" fill-opacity="1"/><path d="M920.606 121.011 913.315 119.688 906.794 112.857C906.654 112.711 906.472 112.613 906.273 112.576L905.184 112.378C905.054 112.355 904.93 112.441 904.906 112.57 904.896 112.623 904.905 112.678 904.93 112.726L908.141 118.747 902.967 117.808 901.332 114.637C901.23 114.439 901.042 114.3 900.823 114.26L900.081 114.125C899.951 114.101 899.826 114.186 899.802 114.316 899.797 114.34 899.796 114.366 899.799 114.391L900.373 118.312C900.418 118.622 900.612 118.89 900.892 119.03L903.041 120.104C904.865 121.016 906.809 121.663 908.814 122.027L910.367 122.308C910.16 122.585 910.218 122.977 910.495 123.183 910.771 123.389 911.163 123.332 911.369 123.055 911.486 122.898 911.522 122.696 911.468 122.509L919.158 123.906C918.959 124.188 919.026 124.578 919.309 124.777 919.591 124.976 919.981 124.909 920.179 124.626 920.285 124.476 920.32 124.287 920.273 124.109L920.992 124.239C920.992 124.239 923.344 124.667 923.557 123.489 923.685 122.785 921.547 121.182 920.606 121.011Z" fill="#000000" fill-rule="nonzero" fill-opacity="1"/></g></g></g></g></svg>