<svg width="31" height="32" xmlns="http://www.w3.org/2000/svg" xmlns:xlink="http://www.w3.org/1999/xlink" overflow="hidden"><defs><clipPath id="clip0"><rect x="898" y="137" width="31" height="32"/></clipPath><clipPath id="clip1"><rect x="899" y="138" width="30" height="31"/></clipPath><clipPath id="clip2"><rect x="899" y="138" width="30" height="31"/></clipPath><clipPath id="clip3"><rect x="899" y="138" width="30" height="31"/></clipPath></defs><g clip-path="url(#clip0)" transform="translate(-898 -137)"><g clip-path="url(#clip1)"><g clip-path="url(#clip2)"><g clip-path="url(#clip3)"><path d="M29.375 25.2966 28.2322 13.3031C28.1711 12.6616 27.6323 12.1716 26.9878 12.1716L24.6875 12.1716 24.6875 10.2966 25.3125 10.2966C25.6577 10.2966 25.9375 10.0168 25.9375 9.67156L25.9375 6.6875 14.375 6.6875 14.375 9.67062C14.375 10.0158 14.6548 10.2956 15 10.2956L15.625 10.2956 15.625 12.1706 3.01094 12.1706C2.36613 12.1707 1.82718 12.6612 1.76656 13.3031L0.625 25.2966 2.8125 25.2966 2.8125 27.1716 5.625 27.1716 5.625 25.2966 24.375 25.2966 24.375 27.1716 27.1875 27.1716 27.1875 25.2966ZM16.875 10.2966 23.4375 10.2966 23.4375 12.1716 16.875 12.1716Z" fill="#000000" fill-rule="nonzero" fill-opacity="1" transform="matrix(1 0 0 1.03333 899 138)"/><path d="M25.4241 5.90156C25.5592 5.54675 25.3812 5.14953 25.0263 5.01437 25.0258 5.01416 25.0252 5.01397 25.0247 5.01375 24.7079 4.89641 24.353 5.02953 24.1916 5.32625 24.1421 5.284 24.0867 5.24919 24.0272 5.22281 23.779 5.12959 23.4994 5.18734 23.3084 5.37125 23.2622 5.5585 23.2032 5.74238 23.1319 5.92156L25.4131 5.92156C25.4169 5.91438 25.4212 5.90875 25.4241 5.90156Z" fill="#000000" fill-rule="nonzero" fill-opacity="1" transform="matrix(1 0 0 1.03333 899 138)"/><path d="M18.9322 4.57094C19.0173 4.72141 19.175 4.81625 19.3478 4.82094 19.7489 4.75559 20.1229 4.57678 20.4256 4.30562 21.4981 3.5125 21.9681 2.65906 21.8081 2.44281 21.7358 2.38111 21.6408 2.35284 21.5466 2.365 21.0778 2.365 20.3241 2.70031 19.6225 3.21906 19.2767 3.42916 18.9971 3.73241 18.8156 4.09406 18.7666 4.26244 18.811 4.44419 18.9322 4.57094Z" fill="#000000" fill-rule="nonzero" fill-opacity="1" transform="matrix(1 0 0 1.03333 899 138)"/><path d="M23.3716 4.95688C23.606 4.84794 23.8738 4.83572 24.1172 4.92281 24.1899 4.85766 24.2717 4.80334 24.36 4.76156 24.3478 4.73144 24.3335 4.70222 24.3172 4.67406 24.0885 4.31831 23.6482 4.16228 23.2466 4.29469 23.2837 4.35322 23.3133 4.41622 23.3347 4.48219 23.3747 4.63703 23.3871 4.79772 23.3716 4.95688Z" fill="#000000" fill-rule="nonzero" fill-opacity="1" transform="matrix(1 0 0 1.03333 899 138)"/><path d="M22.8856 4.615C22.8116 4.36656 22.3409 4 21.6525 3.70406 21.3567 4.04634 21.023 4.35394 20.6578 4.62094 20.1122 5.02469 19.6959 5.21281 19.3478 5.21281 19.0512 5.20741 18.7772 5.05353 18.6181 4.80312 18.4227 4.57481 18.357 4.26272 18.4438 3.975 18.5607 3.68144 18.7516 3.42309 18.9978 3.225 18.6818 3.24316 18.3688 3.29713 18.065 3.38594 17.0875 3.67375 16.2261 4.26359 15.6044 5.07094 15.4092 5.331 15.2514 5.61713 15.1356 5.92094L22.6287 5.92094C22.8794 5.33375 22.9588 4.85969 22.8856 4.615Z" fill="#000000" fill-rule="nonzero" fill-opacity="1" transform="matrix(1 0 0 1.03333 899 138)"/><path d="M5 9.04656 11.25 9.04656C11.9403 9.04656 12.5 8.48691 12.5 7.79656L3.75 7.79656C3.75 8.48691 4.30966 9.04656 5 9.04656Z" fill="#000000" fill-rule="nonzero" fill-opacity="1" transform="matrix(1 0 0 1.03333 899 138)"/><path d="M5 11.2341 11.25 11.2341C11.9403 11.2341 12.5 10.6744 12.5 9.98406L3.75 9.98406C3.75 10.6744 4.30966 11.2341 5 11.2341Z" fill="#000000" fill-rule="nonzero" fill-opacity="1" transform="matrix(1 0 0 1.03333 899 138)"/></g></g></g></g></svg>