<svg width="32" height="30" xmlns="http://www.w3.org/2000/svg" xmlns:xlink="http://www.w3.org/1999/xlink" overflow="hidden"><defs><clipPath id="clip0"><rect x="896" y="76" width="32" height="30"/></clipPath><clipPath id="clip1"><rect x="897" y="76" width="30" height="30"/></clipPath><clipPath id="clip2"><rect x="897" y="76" width="30" height="30"/></clipPath><clipPath id="clip3"><rect x="897" y="76" width="30" height="30"/></clipPath></defs><g clip-path="url(#clip0)" transform="translate(-896 -76)"><g clip-path="url(#clip1)"><g clip-path="url(#clip2)"><g clip-path="url(#clip3)"><path d="M906.062 84.125C906.594 84.125 907 83.7188 907 83.1875L907 81.3125C907 80.7812 906.594 80.375 906.062 80.375 905.531 80.375 905.125 80.7812 905.125 81.3125L905.125 83.1875C905.125 83.7188 905.531 84.125 906.062 84.125Z" fill="#000000" fill-rule="nonzero" fill-opacity="1"/><path d="M903.25 89.75 920.75 89.75 920.75 99.75 903.25 99.75 903.25 89.75ZM901.375 101.625 922.625 101.625 922.625 87.875 901.375 87.875 901.375 101.625Z" fill="#000000" fill-rule="nonzero" fill-opacity="1"/><path d="M917.938 84.125C918.469 84.125 918.875 83.7188 918.875 83.1875L918.875 81.3125C918.875 80.7812 918.469 80.375 917.938 80.375 917.406 80.375 917 80.7812 917 81.3125L917 83.1875C917 83.7188 917.406 84.125 917.938 84.125Z" fill="#000000" fill-rule="nonzero" fill-opacity="1"/><path d="M920.125 82.25 920.125 83.1875C920.125 84.4062 919.156 85.375 917.938 85.375 916.719 85.375 915.75 84.4062 915.75 83.1875L915.75 82.25 908.25 82.25 908.25 83.1875C908.25 84.4062 907.281 85.375 906.062 85.375 904.844 85.375 903.875 84.4062 903.875 83.1875L903.875 82.25 901.375 82.25 901.375 86.625 922.625 86.625 922.625 82.25 920.125 82.25Z" fill="#000000" fill-rule="nonzero" fill-opacity="1"/></g></g></g></g></svg>