<svg width="31" height="31" xmlns="http://www.w3.org/2000/svg" xmlns:xlink="http://www.w3.org/1999/xlink" overflow="hidden"><defs><clipPath id="clip0"><rect x="958" y="582" width="31" height="31"/></clipPath><clipPath id="clip1"><rect x="959" y="583" width="30" height="30"/></clipPath><clipPath id="clip2"><rect x="959" y="583" width="30" height="30"/></clipPath><clipPath id="clip3"><rect x="959" y="583" width="30" height="30"/></clipPath></defs><g clip-path="url(#clip0)" transform="translate(-958 -582)"><g clip-path="url(#clip1)"><g clip-path="url(#clip2)"><g clip-path="url(#clip3)"><path d="M978.666 598.625C977.609 597.725 976.237 597.303 974.938 596.897L974.938 589.341C976.2 589.461 977.379 590.022 978.269 590.925L979.769 589.487C978.485 588.182 976.765 587.395 974.938 587.278L974.938 584.562 973.062 584.562 973.062 587.397C972.42 587.522 971.801 587.743 971.225 588.053 968.856 589.344 967.647 592.375 968.619 594.928 969.372 596.897 971.188 597.775 973.062 598.434L973.062 606.616C971.609 606.438 970.403 605.603 969.403 604.562L967.903 605.997C968.617 606.807 969.469 607.485 970.419 608 971.249 608.395 972.146 608.631 973.062 608.697L973.062 611.438 974.938 611.438 974.938 608.625C977.088 608.266 979.062 606.944 979.912 604.875 980.763 602.806 980.453 600.153 978.666 598.625ZM971.5 595.416C969.781 593.966 970.2 591.159 972.022 589.997 972.345 589.79 972.695 589.629 973.062 589.519L973.062 596.297C972.497 596.091 971.969 595.793 971.5 595.416ZM977.153 605.359C976.543 605.956 975.774 606.363 974.938 606.531L974.938 599.066C976.188 599.494 977.622 600.037 978.131 601.369 978.641 602.7 978.128 604.366 977.153 605.359Z" fill="#000000" fill-rule="nonzero" fill-opacity="1"/></g></g></g></g></svg>