<svg width="32" height="30" xmlns="http://www.w3.org/2000/svg" xmlns:xlink="http://www.w3.org/1999/xlink" overflow="hidden"><defs><clipPath id="clip0"><rect x="956" y="544" width="32" height="30"/></clipPath><clipPath id="clip1"><rect x="957" y="544" width="31" height="30"/></clipPath><clipPath id="clip2"><rect x="957" y="544" width="31" height="30"/></clipPath><clipPath id="clip3"><rect x="957" y="544" width="31" height="30"/></clipPath></defs><g clip-path="url(#clip0)" transform="translate(-956 -544)"><g clip-path="url(#clip1)"><g clip-path="url(#clip2)"><g clip-path="url(#clip3)"><path d="M15 3.75 15 3.75 1.875 16.25 3.28125 17.4375 15 6.3125 26.7188 17.4375 28.125 16.25Z" fill="#000000" fill-rule="nonzero" fill-opacity="1" transform="matrix(1.03333 0 0 1 957 544)"/><path d="M5.625 16.9688 5.625 26.25 13.125 26.25 13.125 18.4375 16.875 18.4375 16.875 26.25 24.375 26.25 24.375 16.9688 15 8.0625 5.625 16.9688Z" fill="#000000" fill-rule="nonzero" fill-opacity="1" transform="matrix(1.03333 0 0 1 957 544)"/></g></g></g></g></svg>