<svg width="31" height="32" xmlns="http://www.w3.org/2000/svg" xmlns:xlink="http://www.w3.org/1999/xlink" overflow="hidden"><defs><clipPath id="clip0"><rect x="866" y="65" width="31" height="32"/></clipPath><clipPath id="clip1"><rect x="867" y="66" width="30" height="31"/></clipPath><clipPath id="clip2"><rect x="867" y="66" width="30" height="31"/></clipPath><clipPath id="clip3"><rect x="867" y="66" width="30" height="31"/></clipPath></defs><g clip-path="url(#clip0)" transform="translate(-866 -65)"><g clip-path="url(#clip1)"><g clip-path="url(#clip2)"><g clip-path="url(#clip3)"><path d="M9.0625 8.125C9.59375 8.125 10 7.71875 10 7.1875L10 5.3125C10 4.78125 9.59375 4.375 9.0625 4.375 8.53125 4.375 8.125 4.78125 8.125 5.3125L8.125 7.1875C8.125 7.71875 8.53125 8.125 9.0625 8.125Z" fill="#000000" fill-rule="nonzero" fill-opacity="1" transform="matrix(1 0 0 1.03333 867 66)"/><path d="M6.25 21.25 11.25 21.25 11.25 23.75 6.25 23.75 6.25 21.25ZM6.25 17.5 11.25 17.5 11.25 20 6.25 20 6.25 17.5ZM6.25 13.75 11.25 13.75 11.25 16.25 6.25 16.25 6.25 13.75ZM17.5 13.75 17.5 16.25 12.5 16.25 12.5 13.75 17.5 13.75ZM23.75 13.75 23.75 16.25 18.75 16.25 18.75 13.75 23.75 13.75ZM23.75 20 18.75 20 18.75 17.5 23.75 17.5 23.75 20ZM23.75 23.75 18.75 23.75 18.75 21.25 23.75 21.25 23.75 23.75ZM12.5 20 12.5 17.5 17.5 17.5 17.5 20 12.5 20ZM12.5 23.75 12.5 21.25 17.5 21.25 17.5 23.75 12.5 23.75ZM4.375 25.625 25.625 25.625 25.625 11.875 4.375 11.875 4.375 25.625Z" fill="#000000" fill-rule="nonzero" fill-opacity="1" transform="matrix(1 0 0 1.03333 867 66)"/><path d="M20.9375 8.125C21.4688 8.125 21.875 7.71875 21.875 7.1875L21.875 5.3125C21.875 4.78125 21.4688 4.375 20.9375 4.375 20.4062 4.375 20 4.78125 20 5.3125L20 7.1875C20 7.71875 20.4062 8.125 20.9375 8.125Z" fill="#000000" fill-rule="nonzero" fill-opacity="1" transform="matrix(1 0 0 1.03333 867 66)"/><path d="M23.125 6.25 23.125 7.1875C23.125 8.40625 22.1562 9.375 20.9375 9.375 19.7188 9.375 18.75 8.40625 18.75 7.1875L18.75 6.25 11.25 6.25 11.25 7.1875C11.25 8.40625 10.2812 9.375 9.0625 9.375 7.84375 9.375 6.875 8.40625 6.875 7.1875L6.875 6.25 4.375 6.25 4.375 10.625 25.625 10.625 25.625 6.25 23.125 6.25Z" fill="#000000" fill-rule="nonzero" fill-opacity="1" transform="matrix(1 0 0 1.03333 867 66)"/></g></g></g></g></svg>